<?xml version="1.0" encoding="UTF-8" standalone="no"?>
<svg
   xmlns:dc="http://purl.org/dc/elements/1.1/"
   xmlns:cc="http://creativecommons.org/ns#"
   xmlns:rdf="http://www.w3.org/1999/02/22-rdf-syntax-ns#"
   xmlns:svg="http://www.w3.org/2000/svg"
   xmlns="http://www.w3.org/2000/svg"
   xmlns:sodipodi="http://sodipodi.sourceforge.net/DTD/sodipodi-0.dtd"
   xmlns:inkscape="http://www.inkscape.org/namespaces/inkscape"
   width="1000"
   height="1000"
   viewBox="0 0 264.58333 264.58334"
   version="1.1"
   id="svg8"
   inkscape:version="1.0.2-2 (e86c870879, 2021-01-15)"
   sodipodi:docname="unpaused_logo.svg">
  <defs
     id="defs2" />
  <sodipodi:namedview
     id="base"
     pagecolor="#ffffff"
     bordercolor="#666666"
     borderopacity="1.0"
     inkscape:pageopacity="0"
     inkscape:pageshadow="2"
     inkscape:zoom="0.85"
     inkscape:cx="458.82352"
     inkscape:cy="500"
     inkscape:document-units="px"
     inkscape:current-layer="layer1"
     inkscape:document-rotation="0"
     showgrid="false"
     units="px"
     inkscape:pagecheckerboard="true"
     inkscape:window-width="1346"
     inkscape:window-height="1040"
     inkscape:window-x="217"
     inkscape:window-y="3"
     inkscape:window-maximized="0"
     inkscape:snap-grids="true" />
  <metadata
     id="metadata5">
    <rdf:RDF>
      <cc:Work
         rdf:about="">
        <dc:format>image/svg+xml</dc:format>
        <dc:type
           rdf:resource="http://purl.org/dc/dcmitype/StillImage" />
        <dc:title />
      </cc:Work>
    </rdf:RDF>
  </metadata>
  <g
     inkscape:label="Layer 1"
     inkscape:groupmode="layer"
     id="layer1">
    <ellipse
       style="opacity:1;fill:none;fill-opacity:1;fill-rule:evenodd;stroke:#8114b8;stroke-width:33.0729;stroke-miterlimit:4;stroke-dasharray:none;stroke-opacity:1"
       id="path20"
       cy="132.29167"
       cx="132.29167"
       rx="115.75522"
       ry="115.75523" />
    <path
       style="fill:#000000;stroke:none;stroke-width:1.17647;fill-opacity:0"
       d="M 477.64706,998.70489 C 307.65468,991.64982 150.95159,895.68675 65.760528,746.47059 27.174188,678.8848 4.1856226,598.55335 1.3719532,521.47059 -1.3277599,447.50975 9.8495871,381.63406 36.459973,314.67306 95.488588,166.13652 224.83851,53.606245 380.58824,15.292528 427.40301,3.7763082 471.10886,-0.54467042 521.47059,1.364194 c 157.42195,5.9667764 305.1803,89.007308 393.21683,220.988746 14.90518,22.34534 24.50076,39.03174 34.84147,60.58824 29.97433,62.48513 46.668,128.98496 49.09916,195.58823 2.69595,73.85847 -8.59913,140.33324 -35.15852,206.91748 -45.84487,114.93287 -134.83259,210.32496 -246.34708,264.0765 -59.3772,28.62065 -128.63412,46.50834 -188.77577,48.75705 -8.79655,0.3289 -19.17021,0.75121 -23.05256,0.93845 -3.88236,0.18725 -16.32353,-0.044 -27.64706,-0.514 z"
       id="path24"
       transform="scale(0.26458333)" />
    <path
       style="fill:#000000;fill-opacity:0;stroke-width:1.17647"
       d="M 477.64706,998.70489 C 307.65468,991.64982 150.95159,895.68675 65.760528,746.47059 27.174188,678.8848 4.1856226,598.55335 1.3719532,521.47059 -1.3277599,447.50975 9.8495871,381.63406 36.459973,314.67306 95.488588,166.13652 224.83851,53.606245 380.58824,15.292528 427.40301,3.7763082 471.10886,-0.54467042 521.47059,1.364194 c 157.42195,5.9667764 305.1803,89.007308 393.21683,220.988746 14.90518,22.34534 24.50076,39.03174 34.84147,60.58824 29.97433,62.48513 46.668,128.98496 49.09916,195.58823 2.69595,73.85847 -8.59913,140.33324 -35.15852,206.91748 -45.84487,114.93287 -134.83259,210.32496 -246.34708,264.0765 -59.3772,28.62065 -128.63412,46.50834 -188.77577,48.75705 -8.79655,0.3289 -19.17021,0.75121 -23.05256,0.93845 -3.88236,0.18725 -16.32353,-0.044 -27.64706,-0.514 z"
       id="path26"
       transform="scale(0.26458333)" />
    <path
       style="fill:#000000;fill-opacity:0;stroke-width:1.17647"
       d="M 477.64706,998.70489 C 307.65468,991.64982 150.95159,895.68675 65.760528,746.47059 27.174188,678.8848 4.1856226,598.55335 1.3719532,521.47059 -1.3277599,447.50975 9.8495871,381.63406 36.459973,314.67306 95.488588,166.13652 224.83851,53.606245 380.58824,15.292528 427.40301,3.7763082 471.10886,-0.54467042 521.47059,1.364194 c 157.42195,5.9667764 305.1803,89.007308 393.21683,220.988746 14.90518,22.34534 24.50076,39.03174 34.84147,60.58824 29.97433,62.48513 46.668,128.98496 49.09916,195.58823 2.69595,73.85847 -8.59913,140.33324 -35.15852,206.91748 -45.84487,114.93287 -134.83259,210.32496 -246.34708,264.0765 -59.3772,28.62065 -128.63412,46.50834 -188.77577,48.75705 -8.79655,0.3289 -19.17021,0.75121 -23.05256,0.93845 -3.88236,0.18725 -16.32353,-0.044 -27.64706,-0.514 z"
       id="path28"
       transform="scale(0.26458333)" />
    <path
       style="fill:#000000;fill-opacity:0;stroke-width:1.17647"
       d="M 477.64706,998.70489 C 307.65468,991.64982 150.95159,895.68675 65.760528,746.47059 27.174188,678.8848 4.1856226,598.55335 1.3719532,521.47059 -1.3277599,447.50975 9.8495871,381.63406 36.459973,314.67306 95.488588,166.13652 224.83851,53.606245 380.58824,15.292528 427.40301,3.7763082 471.10886,-0.54467042 521.47059,1.364194 c 157.42195,5.9667764 305.1803,89.007308 393.21683,220.988746 14.90518,22.34534 24.50076,39.03174 34.84147,60.58824 29.97433,62.48513 46.668,128.98496 49.09916,195.58823 2.69595,73.85847 -8.59913,140.33324 -35.15852,206.91748 -45.84487,114.93287 -134.83259,210.32496 -246.34708,264.0765 -59.3772,28.62065 -128.63412,46.50834 -188.77577,48.75705 -8.79655,0.3289 -19.17021,0.75121 -23.05256,0.93845 -3.88236,0.18725 -16.32353,-0.044 -27.64706,-0.514 z"
       id="path30"
       transform="scale(0.26458333)" />
    <path
       style="fill:#000000;fill-opacity:0;stroke-width:1.17647"
       d="M 477.64706,998.70489 C 307.65468,991.64982 150.95159,895.68675 65.760528,746.47059 27.174188,678.8848 4.1856226,598.55335 1.3719532,521.47059 -1.3277599,447.50975 9.8495871,381.63406 36.459973,314.67306 95.488588,166.13652 224.83851,53.606245 380.58824,15.292528 427.40301,3.7763082 471.10886,-0.54467042 521.47059,1.364194 c 157.42195,5.9667764 305.1803,89.007308 393.21683,220.988746 14.90518,22.34534 24.50076,39.03174 34.84147,60.58824 29.97433,62.48513 46.668,128.98496 49.09916,195.58823 2.69595,73.85847 -8.59913,140.33324 -35.15852,206.91748 -45.84487,114.93287 -134.83259,210.32496 -246.34708,264.0765 -59.3772,28.62065 -128.63412,46.50834 -188.77577,48.75705 -8.79655,0.3289 -19.17021,0.75121 -23.05256,0.93845 -3.88236,0.18725 -16.32353,-0.044 -27.64706,-0.514 z"
       id="path32"
       transform="scale(0.26458333)" />
    <path
       style="fill:#000000;fill-opacity:0;stroke-width:1.17647;opacity:0"
       d="M 477.64706,998.70489 C 307.65468,991.64982 150.95159,895.68675 65.760528,746.47059 27.174188,678.8848 4.1856226,598.55335 1.3719532,521.47059 -1.3277599,447.50975 9.8495871,381.63406 36.459973,314.67306 95.488588,166.13652 224.83851,53.606245 380.58824,15.292528 427.40301,3.7763082 471.10886,-0.54467042 521.47059,1.364194 c 157.42195,5.9667764 305.1803,89.007308 393.21683,220.988746 14.90518,22.34534 24.50076,39.03174 34.84147,60.58824 29.97433,62.48513 46.668,128.98496 49.09916,195.58823 2.69595,73.85847 -8.59913,140.33324 -35.15852,206.91748 -45.84487,114.93287 -134.83259,210.32496 -246.34708,264.0765 -59.3772,28.62065 -128.63412,46.50834 -188.77577,48.75705 -8.79655,0.3289 -19.17021,0.75121 -23.05256,0.93845 -3.88236,0.18725 -16.32353,-0.044 -27.64706,-0.514 z"
       id="path34"
       transform="scale(0.26458333)" />
    <path
       style="opacity:0;fill:#000000;fill-opacity:0;stroke-width:1.17647"
       d="M 477.33818,998.74218 C 351.96608,993.35464 231.02381,939.07651 142.89409,848.64578 74.090514,778.04579 28.236756,690.31195 9.5584835,593.52941 -6.5893062,509.85871 -0.83530659,424.17076 26.425142,342.35294 61.85134,236.02694 130.83909,145.94459 224.11765,84.211365 245.77646,69.877224 255.63081,64.191504 278.97796,52.558329 374.52502,4.9501507 483.98596,-10.391535 590,8.966504 764.17074,40.76988 908.89664,163.26505 969.43787,330.12055 c 43.54143,120.00304 39.27443,251.98254 -11.95455,369.7589 -56.00861,128.76467 -165.91218,229.1614 -299.58493,273.67033 -42.33727,14.09701 -89.2579,23.10015 -128.58144,24.67223 -9.00667,0.36006 -19.81695,0.82077 -24.02283,1.02378 -4.20588,0.20301 -16.78606,-0.0237 -27.95594,-0.50361 z"
       id="path859"
       transform="scale(0.26458333)" />
    <path
       style="fill:#7c2aee;fill-opacity:1;stroke:#8114b8;stroke-width:33.0729;stroke-linecap:butt;stroke-linejoin:miter;stroke-miterlimit:4;stroke-dasharray:none;stroke-opacity:1"
       d="M 11.693042,252.8903 252.89031,11.693036"
       id="path861"
       sodipodi:nodetypes="cc" />
    <path
       sodipodi:type="star"
       style="opacity:1;fill:#8114b8;fill-opacity:1;stroke:#8114b8;stroke-width:6.84262;stroke-linejoin:round;stroke-miterlimit:4;stroke-dasharray:none;stroke-opacity:1"
       id="path867"
       sodipodi:sides="3"
       sodipodi:cx="97.009514"
       sodipodi:cy="93.078827"
       sodipodi:r1="30.807554"
       sodipodi:r2="15.403777"
       sodipodi:arg1="-0.0092589947"
       sodipodi:arg2="1.0379386"
       inkscape:flatsided="true"
       inkscape:rounded="0"
       inkscape:randomized="0"
       d="M 127.81575,92.793584 81.853425,119.90043 81.359369,66.542467 Z"
       inkscape:transform-center-x="-7.3234502"
       inkscape:transform-center-y="0.1379112"
       transform="matrix(0.9664037,0,0,0.96694537,2.7324496,2.2004671)" />
    <g
       id="g943"
       transform="translate(2.6458334,-1.8520875)">
      <rect
         style="fill:#8114b8;stroke:none;stroke-width:0;stroke-linejoin:round;stroke-miterlimit:4;stroke-dasharray:none;stroke-opacity:1"
         id="rect919"
         width="25.135416"
         height="58.208332"
         x="142.875"
         y="144.19792"
         rx="6.6145835"
         ry="6.6145835" />
      <rect
         style="fill:#8114b8;stroke:none;stroke-width:0;stroke-linejoin:round;stroke-miterlimit:4;stroke-dasharray:none;stroke-opacity:1"
         id="rect919-2"
         width="25.135416"
         height="58.208332"
         x="175.94792"
         y="144.19792"
         rx="6.6145835"
         ry="6.6145835" />
    </g>
  </g>
</svg>
